<svg width="32" height="32" viewBox="0 0 32 32" fill="none" xmlns="http://www.w3.org/2000/svg">
<path d="M24.5446 17.9458C24.4113 16.2134 23.6558 14.4911 22.5926 13.1167C22.4051 12.8744 21.9229 13.0232 22.0538 13.3528C23.046 15.8528 22.1089 18.7397 20.6141 20.8799C19.2195 22.8771 16.6099 23.8946 14.1412 23.5599C11.5054 23.2022 9.41481 21.3598 8.64898 18.9011C8.26056 17.6546 8.21766 16.3224 8.57267 15.063C8.99754 13.556 9.96764 12.2921 10.948 11.0855C13.0621 8.48349 15.6869 5.58407 15.633 2.05549C15.6322 1.99231 15.5236 1.97643 15.5156 2.04293C15.0494 6.01152 11.2328 8.03609 8.79061 10.8121C7.62193 12.1403 6.61614 13.6532 6.21519 15.3788C5.86474 16.8862 5.95434 18.4851 6.39668 19.9651C7.35691 23.1782 10.009 25.7341 13.4247 26.3544C16.7382 26.9566 20.5412 25.9642 22.7027 23.3363C23.9773 21.7869 24.6984 19.9463 24.5446 17.9458Z" fill="#D3AE79"/>
<path d="M25.687 21.8718C24.3418 25.2301 20.5776 27.8055 16.942 28.2137C12.7138 28.6885 8.66638 26.399 6.17752 23.1756C6.16689 23.1623 6.14753 23.1741 6.15474 23.1893C7.70653 26.423 10.602 28.7797 14.1722 29.6723C17.7534 30.5679 21.5116 29.6217 24.0209 26.9085C24.6581 26.2198 25.1103 25.4093 25.4577 24.5525C25.8229 23.6515 25.9668 22.8723 25.9999 21.9054C26.0067 21.7156 25.7466 21.7229 25.687 21.8718Z" fill="#D3AE79"/>
<path d="M20.7728 16.879C20.7162 16.5757 20.5875 16.313 20.3464 16.1663C19.6227 15.727 18.8504 17.0064 18.525 17.4501C17.5868 18.7299 16.081 19.41 14.4498 19.1762C12.9934 18.9671 11.6599 17.9175 11.6869 16.3928C11.7055 15.3203 12.3961 14.3863 13.1737 13.694C13.3313 13.5539 13.2018 13.2359 12.9786 13.2658C11.6827 13.4405 10.8075 14.5127 10.3978 15.6517C9.93726 16.9329 9.97978 18.3128 10.648 19.5139C12.2036 22.3091 16.6558 23.1004 19.0141 20.8195C19.6808 20.1744 20.3069 19.3735 20.6137 18.4831C20.7428 18.1085 20.8753 17.4269 20.7728 16.879Z" fill="#D3AE79"/>
<path d="M17.0449 15.3737C16.1937 13.5627 13.3422 14.6134 13.8711 16.4968C14.5458 18.6189 17.8248 17.5789 17.0871 15.4749L17.0449 15.3737Z" fill="#D3AE79"/>
</svg>
